<svg width="56" height="60" viewBox="0 0 56 60" fill="none" xmlns="http://www.w3.org/2000/svg">
<path d="M53.8712 32.0735H45.4816V1.79876C45.4816 1.17086 45.1673 0.584575 44.6443 0.237113C44.1214 -0.110348 43.4593 -0.172926 42.8803 0.0701208L11.4133 13.2924C10.7174 13.5848 10.2646 14.2661 10.2646 15.0209V32.0734H1.875C0.839532 32.0734 0 32.9129 0 33.9484V58.0488C0 59.0843 0.839532 59.9238 1.875 59.9238H53.8712C54.9066 59.9238 55.7462 59.0843 55.7462 58.0488V33.9485C55.7462 32.9129 54.9066 32.0735 53.8712 32.0735ZM14.0146 16.2669L41.7316 4.6204V56.1738H35.4121V41.6346C35.4121 40.5991 34.5726 39.7596 33.5371 39.7596H22.2091C21.1736 39.7596 20.3341 40.5991 20.3341 41.6346V56.1738H14.0146V16.2669ZM31.6621 56.1738H24.0841V43.5096H31.6621V56.1738ZM3.75 35.8235H10.2645V56.1738H3.75V35.8235ZM51.9962 56.1738H45.4816V35.8235H51.9962V56.1738ZM17.7012 30.9954C17.7012 29.9599 18.5407 29.1204 19.5762 29.1204H24.4981C25.5335 29.1204 26.3731 29.9599 26.3731 30.9954C26.3731 32.0308 25.5335 32.8704 24.4981 32.8704H19.5762C18.5406 32.8704 17.7012 32.0308 17.7012 30.9954ZM29.3731 30.9954C29.3731 29.9599 30.2126 29.1204 31.2481 29.1204H36.17C37.2054 29.1204 38.045 29.9599 38.045 30.9954C38.045 32.0308 37.2054 32.8704 36.17 32.8704H31.2481C30.2125 32.8704 29.3731 32.0308 29.3731 30.9954ZM17.7012 23.4016C17.7012 22.3661 18.5407 21.5266 19.5762 21.5266H24.4981C25.5335 21.5266 26.3731 22.3661 26.3731 23.4016C26.3731 24.4371 25.5335 25.2766 24.4981 25.2766H19.5762C18.5406 25.2766 17.7012 24.4371 17.7012 23.4016ZM29.3731 23.4016C29.3731 22.3661 30.2126 21.5266 31.2481 21.5266H36.17C37.2054 21.5266 38.045 22.3661 38.045 23.4016C38.045 24.4371 37.2054 25.2766 36.17 25.2766H31.2481C30.2125 25.2766 29.3731 24.4371 29.3731 23.4016Z" fill="#00C5CA"/>
</svg>
