<svg width="60" height="58" viewBox="0 0 60 58" fill="none" xmlns="http://www.w3.org/2000/svg">
<path fill-rule="evenodd" clip-rule="evenodd" d="M50 20.9231C55.5228 20.9231 60 16.4459 60 10.9231C60 5.40025 55.5228 0.923096 50 0.923096C44.4772 0.923096 40 5.40025 40 10.9231C40 16.4459 44.4772 20.9231 50 20.9231ZM46.8735 6.21599C46.483 5.82547 45.8498 5.82547 45.4593 6.21599C45.0687 6.60651 45.0687 7.23968 45.4593 7.6302L48.669 10.8399L45.2929 14.216C44.9024 14.6065 44.9024 15.2397 45.2929 15.6302C45.6834 16.0207 46.3166 16.0207 46.7071 15.6302L50.0832 12.2541L53.4593 15.6302C53.8498 16.0207 54.483 16.0207 54.8735 15.6302C55.2641 15.2397 55.2641 14.6065 54.8735 14.216L51.4974 10.8399L54.7072 7.6302C55.0977 7.23968 55.0977 6.60651 54.7072 6.21599C54.3166 5.82547 53.6835 5.82547 53.293 6.21599L50.0832 9.4257L46.8735 6.21599ZM60 53.4231V24.9231C60 23.8185 59.1046 22.9231 58 22.9231C56.8954 22.9231 56 23.8185 56 24.9231V53.4231H4L4 13.4231H34C35.1046 13.4231 36 12.5277 36 11.4231C36 10.3185 35.1046 9.4231 34 9.4231H4C1.79086 9.4231 0 11.214 0 13.4231V53.4231C0 55.6322 1.79086 57.4231 4 57.4231H56C58.2091 57.4231 60 55.6322 60 53.4231ZM45 30.4231C45 31.5277 44.1046 32.4231 43 32.4231C41.8954 32.4231 41 31.5277 41 30.4231C41 29.3185 41.8954 28.4231 43 28.4231C44.1046 28.4231 45 29.3185 45 30.4231ZM49 30.4231C49 33.7368 46.3137 36.4231 43 36.4231C39.6863 36.4231 37 33.7368 37 30.4231C37 27.1094 39.6863 24.4231 43 24.4231C46.3137 24.4231 49 27.1094 49 30.4231ZM42.7857 42.1373C39.8665 42.1373 37.5 44.5038 37.5 47.423C37.5 48.5276 36.6046 49.423 35.5 49.423C34.3954 49.423 33.5 48.5276 33.5 47.423C33.5 42.2947 37.6574 38.1373 42.7857 38.1373C47.9141 38.1373 52.0714 42.2947 52.0714 47.423C52.0714 48.5276 51.176 49.423 50.0714 49.423C48.9669 49.423 48.0714 48.5276 48.0714 47.423C48.0714 44.5038 45.7049 42.1373 42.7857 42.1373ZM11.25 35.4231C12.4926 35.4231 13.5 34.4157 13.5 33.1731C13.5 31.9305 12.4926 30.9231 11.25 30.9231C10.0074 30.9231 9 31.9305 9 33.1731C9 34.4157 10.0074 35.4231 11.25 35.4231ZM16 33.1731C16 31.9305 17.0074 30.9231 18.25 30.9231H27.75C28.9926 30.9231 30 31.9305 30 33.1731C30 34.4157 28.9926 35.4231 27.75 35.4231H18.25C17.0074 35.4231 16 34.4157 16 33.1731ZM11.25 24.4231C10.0074 24.4231 9 25.4305 9 26.6731C9 27.9157 10.0074 28.9231 11.25 28.9231H27.75C28.9926 28.9231 30 27.9157 30 26.6731C30 25.4305 28.9926 24.4231 27.75 24.4231H11.25Z" fill="#00C5CA"/>
</svg>
