<svg width="36" height="31" viewBox="0 0 36 31" fill="none" xmlns="http://www.w3.org/2000/svg">
<path d="M17.0002 25.6667C17.0002 19.2167 22.2168 14.0001 28.6668 14.0001C30.4668 14.0001 32.1502 14.4167 33.6668 15.1334V4.00008C33.6668 2.16675 32.1668 0.666748 30.3335 0.666748H3.66683C1.8335 0.666748 0.333496 2.16675 0.333496 4.00008V24.0001C0.333496 25.8334 1.8335 27.3334 3.66683 27.3334H17.1335C17.0502 26.7834 17.0002 26.2334 17.0002 25.6667ZM3.66683 4.00008L17.0002 12.3334L30.3335 4.00008V7.33342L17.0002 15.6667L3.66683 7.33342V4.00008ZM25.9002 30.6667L20.0002 24.7667L22.3502 22.4167L25.8835 25.9501L32.9502 18.8834L35.3335 21.2334L25.9002 30.6667Z" fill="white"/>
</svg>
