<svg width="80" height="80" viewBox="0 0 128 128" fill="none" xmlns="http://www.w3.org/2000/svg">
<mask id="mask0_24575_75294" style="mask-type:luminance" maskUnits="userSpaceOnUse" x="2" y="0" width="124" height="129">
<path fill-rule="evenodd" clip-rule="evenodd" d="M116.888 0H83.9835C79.4687 0 75.796 3.67275 75.796 8.1875V23.024C69.6257 14.1608 59.3652 8.3475 47.771 8.3475H39.3885C29.5862 8.3475 20.457 13.5078 15.3772 21.865C8.48348 24.0265 3.87723 30.4478 4.08673 37.7493L4.56023 54.1105C3.10198 55.4785 2.18848 57.4203 2.18848 59.5728V61.3328C2.18848 65.4628 5.54948 68.8228 9.68098 68.8228H14.7072C15.9867 71.9875 17.8485 74.9403 20.263 77.6305L18.6277 79.8951C16.1426 83.3366 12.0095 89.0602 11.6865 89.508C11.5507 89.6963 11.451 89.9085 11.3925 90.133L2.74423 123.403C2.45598 124.512 2.69248 125.668 3.39348 126.574C4.09423 127.48 5.15348 128 6.29898 128H76.0485C77.299 128 78.5045 127.475 79.3562 126.56C80.2082 125.645 80.6457 124.404 80.556 123.154L79.846 113.435C79.6677 110.975 79.0147 108.621 77.9047 106.438C77.435 105.515 76.306 105.147 75.3835 105.617C74.4605 106.086 74.0927 107.215 74.562 108.138C75.4445 109.873 75.9637 111.747 76.1057 113.707L76.8157 123.425C76.8367 123.717 76.6965 123.914 76.6115 124.006C76.5265 124.097 76.3397 124.251 76.0485 124.251H67.4002V116.589C67.4002 115.554 66.561 114.714 65.5252 114.714C64.4895 114.714 63.6502 115.554 63.6502 116.589V124.25H22.5957L27.38 105.846C27.3957 105.785 27.4502 105.743 27.5127 105.743H35.797C37.4782 105.743 39.063 105.325 40.4557 104.59C41.6597 104.808 42.8932 104.92 44.1335 104.92C49.392 104.92 54.4102 102.912 58.084 99.3723L58.091 99.3735C58.1276 99.3811 58.1578 99.3874 58.1881 99.3934C58.3382 99.4234 58.4897 99.447 59.4377 99.5947L59.4391 99.5949L59.4398 99.5951L59.4407 99.5952C60.2092 99.715 61.4998 99.9161 63.734 100.268C65.7705 100.586 67.6777 101.311 69.4037 102.422C69.7177 102.624 70.0692 102.721 70.417 102.721C71.0332 102.721 71.637 102.417 71.9952 101.86C72.5557 100.99 72.3042 99.8293 71.4335 99.2688C69.2652 97.8728 66.8695 96.9625 64.3137 96.563C62.2547 96.2177 60.996 96.0335 60.1694 95.9125C59.0646 95.7508 58.7316 95.7021 58.291 95.5328C56.9375 95.0105 56.012 93.722 55.9887 92.2178C58.206 91.266 59.771 89.099 59.7907 86.5835C59.797 85.8915 59.6892 85.2173 59.4792 84.5798C63.9145 81.9505 70.274 76.9748 73.5617 68.8225H77.091C81.221 68.8225 84.581 65.4625 84.581 61.3325V59.5725C84.581 57.2705 83.5367 55.2083 81.8985 53.8328V49.0085C82.5755 49.187 83.2765 49.28 83.9837 49.28H89.8885C90.5707 49.28 91.126 49.835 91.126 50.5175V55.8425C91.126 57.1663 91.9352 58.2983 93.188 58.7265C93.5215 58.8405 93.8607 58.8958 94.1942 58.8958C95.1132 58.8958 95.9887 58.4763 96.5822 57.7095L102.786 49.7163C103.001 49.439 103.326 49.28 103.676 49.28H116.891C121.406 49.28 125.078 45.6073 125.078 41.0925V8.1875C125.078 3.67275 121.404 0 116.888 0ZM5.93848 61.3325V59.5725C5.93848 57.509 7.61723 55.83 9.68098 55.83H12.7235C12.5945 59.0903 12.679 61.775 13.4932 65.0725H9.68098C7.61723 65.0725 5.93848 63.3948 5.93848 61.3325ZM45.81 95.7305C45.81 97.7345 45.216 99.6012 44.198 101.169C48.0212 101.154 51.6747 99.8425 54.5255 97.5143C53.234 96.2905 52.4015 94.6073 52.2592 92.7343H45.81V95.7305ZM53.4747 88.984H45.3855C43.5517 88.984 42.06 90.4757 42.06 92.3095V95.7302C42.06 99.1835 39.2505 101.993 35.797 101.993H27.5127C25.743 101.993 24.196 103.189 23.7507 104.902L18.721 124.25H6.39898L14.9335 91.4167L17.9199 87.2807L17.9555 87.2313C21.8479 81.8407 28.2092 73.0309 29.2905 71.5315C29.6797 70.992 30.2555 70.6367 30.9115 70.5315C31.5752 70.4248 32.245 70.586 32.7937 70.9842L32.8852 71.051C33.481 71.4832 33.8332 72.1517 33.8527 72.9005C33.8697 73.4077 33.7242 73.8958 33.43 74.3145L29.935 79.308C29.2837 80.2355 29.204 81.4365 29.7265 82.4422C30.2495 83.4485 31.2792 84.0737 32.414 84.0737H53.5855C54.2417 84.0737 54.8587 84.3295 55.3232 84.7937C55.7917 85.2625 56.0467 85.886 56.0407 86.5518C56.0302 87.893 54.879 88.984 53.4747 88.984ZM77.091 65.0725C79.1532 65.0725 80.831 63.3948 80.831 61.3325V59.5725C80.831 57.509 79.1532 55.83 77.091 55.83H75.546C75.578 56.644 75.5957 57.4715 75.5957 58.3075C75.5957 60.6133 75.318 62.8785 74.7762 65.0725H77.091ZM77.091 52.08H75.2777C75.058 49.974 74.723 47.9345 74.2747 45.998C73.3987 42.2292 70.0727 39.4442 66.186 39.2255C58.9215 38.8182 51.5125 36.9347 44.7587 33.7782C42.8677 32.8962 40.584 33.5052 39.4457 35.1952C39.016 35.8337 38.113 36.2982 37.3077 36.28C35.995 36.2647 34.5515 35.5435 32.766 34.0107C31.562 32.9753 30.3487 31.763 29.0585 30.306C28.1307 29.2557 26.796 28.6527 25.3965 28.6515H25.3917C24.0005 28.6515 22.6735 29.248 21.75 30.289C19.9457 32.325 18.3805 34.6625 17.0977 37.236C16.6357 38.1628 17.0125 39.2885 17.9392 39.7507C18.8662 40.2127 19.9917 39.836 20.454 38.9092C21.5902 36.6297 22.9705 34.5662 24.5562 32.777C24.8457 32.4507 25.2035 32.4017 25.392 32.4017C25.5855 32.4047 25.9505 32.452 26.2497 32.7907C27.6552 34.3777 28.987 35.707 30.3222 36.8552C31.8907 38.2017 34.317 39.996 37.2632 40.03C39.35 40.0512 41.4187 38.9795 42.5562 37.29C42.6695 37.1217 42.9465 37.071 43.1722 37.1762C50.3537 40.5325 58.2392 42.5357 65.9755 42.9697C68.21 43.0955 70.1207 44.6897 70.6217 46.8455C71.1485 49.1212 71.5092 51.5587 71.6935 54.0947C71.7945 55.447 71.8457 56.8645 71.8457 58.3077C71.8457 61.0757 71.3925 63.7742 70.4985 66.3287C67.6972 74.3375 61.428 79.1215 57.2657 81.5317C56.2055 80.7477 54.928 80.324 53.5855 80.324H33.8012L36.5 76.468C37.2645 75.38 37.645 74.103 37.6007 72.7897C37.5517 70.8792 36.6355 69.1392 35.0895 68.0175L34.9982 67.951C33.6352 66.9622 31.973 66.5642 30.3177 66.8292C28.6705 67.0935 27.2257 67.9845 26.249 69.3382C25.5435 70.3167 24.1605 72.2325 22.5157 74.5107C20.3877 72.0017 18.7947 69.258 17.7705 66.3285C16.327 62.205 16.2465 58.5015 16.5757 54.0917C16.7645 51.5022 17.1387 49.0097 17.688 46.6838C17.926 45.676 17.302 44.666 16.294 44.428C15.2862 44.19 14.2762 44.814 14.0382 45.822C13.568 47.8135 13.2187 49.9132 12.9917 52.0805H9.68098C9.19398 52.0805 8.71848 52.1287 8.25698 52.218L7.83523 37.6418C7.66823 31.8298 11.4732 26.7442 17.0882 25.2745C17.576 25.1467 17.992 24.828 18.242 24.39C22.5685 16.8075 30.6715 12.0975 39.3885 12.0975H47.771C64.5212 12.0975 78.1485 25.7247 78.1485 42.475V52.156C77.8027 52.107 77.45 52.08 77.091 52.08ZM116.891 45.53C119.338 45.53 121.328 43.5395 121.328 41.0925V8.1875C121.328 5.7405 119.336 3.75 116.888 3.75H83.9835C81.5367 3.75 79.546 5.7405 79.546 8.1875V30.0227C81.0637 33.8825 81.8982 38.083 81.8982 42.475V45.009C82.534 45.3502 83.2415 45.53 83.9835 45.53H89.8885C92.6387 45.53 94.876 47.7675 94.876 50.5175V53.792L99.825 47.4152C100.757 46.2165 102.16 45.53 103.676 45.53H116.891ZM91.7427 17.8547C91.7427 13.0605 95.6427 9.16025 100.437 9.16025C105.231 9.16025 109.131 13.0605 109.131 17.8547C109.131 22.4182 105.597 26.172 101.122 26.5225V31.089C101.122 32.1245 100.283 32.964 99.247 32.964C98.2112 32.964 97.372 32.1245 97.372 31.089V24.6743C97.372 23.6388 98.2112 22.7993 99.247 22.7993H100.437C103.163 22.7993 105.381 20.5812 105.381 17.8547C105.381 15.1283 103.163 12.9102 100.437 12.9102C97.7107 12.9102 95.4927 15.1283 95.4927 17.8547C95.4927 18.8902 94.6535 19.7297 93.6177 19.7297C92.582 19.7297 91.7427 18.8902 91.7427 17.8547ZM97.372 37.696C97.372 36.6605 98.2112 35.821 99.247 35.821C100.282 35.821 101.122 36.6605 101.122 37.696V38.2453C101.122 39.2808 100.283 40.1203 99.247 40.1203C98.2112 40.1203 97.372 39.2808 97.372 38.2453V37.696ZM36.535 58.2895C36.535 59.325 35.6955 60.1645 34.66 60.1645C33.6245 60.1645 32.785 59.325 32.785 58.2895V56.196C32.785 55.1605 33.6245 54.321 34.66 54.321C35.6955 54.321 36.535 55.1605 36.535 56.196V58.2895ZM62.6792 60.1645C63.715 60.1645 64.5542 59.325 64.5542 58.2895V56.196C64.5542 55.1605 63.715 54.321 62.6792 54.321C61.6437 54.321 60.8042 55.1605 60.8042 56.196V58.2895C60.8042 59.325 61.6437 60.1645 62.6792 60.1645ZM52.9295 69.3898C50.373 67.8985 47.9922 67.8985 45.4357 69.3898C44.5415 69.9115 43.393 69.6095 42.8712 68.7148C42.3495 67.8205 42.6517 66.6723 43.5462 66.1505C47.2335 63.9995 51.1315 63.9995 54.8187 66.1505C55.7132 66.6723 56.0155 67.8203 55.4937 68.7148C55.1452 69.312 54.5175 69.6452 53.8725 69.6452C53.5515 69.6455 53.2265 69.563 52.9295 69.3898Z" fill="white"/>
</mask>
<g mask="url(#mask0_24575_75294)">
<rect x="-5.43311" y="-3.69287" width="140.8" height="138.667" fill="#00C5CA"/>
</g>
</svg>
